GIL03_xslow1_RRA_states
nRows=4
nColumns=47

# SIMM Motion File Header:
name GIL03_xslow1_RRA_states
datacolumns 47
datarows 4
otherdata 1
range 1.25399999999997250000 1.25549999999997230000
endheader
time	pelvis_tx	pelvis_ty	pelvis_tz	pelvis_tilt	pelvis_list	pelvis_rotation	hip_flexion_r	hip_adduction_r	hip_rotation_r	knee_angle_r	ankle_angle_r	subtalar_angle_r	mtp_angle_r	hip_flexion_l	hip_adduction_l	hip_rotation_l	knee_angle_l	ankle_angle_l	subtalar_angle_l	mtp_angle_l	lumbar_extension	lumbar_bending	lumbar_rotation	pelvis_tx_u	pelvis_ty_u	pelvis_tz_u	pelvis_tilt_u	pelvis_list_u	pelvis_rotation_u	hip_flexion_r_u	hip_adduction_r_u	hip_rotation_r_u	knee_angle_r_u	ankle_angle_r_u	subtalar_angle_r_u	mtp_angle_r_u	hip_flexion_l_u	hip_adduction_l_u	hip_rotation_l_u	knee_angle_l_u	ankle_angle_l_u	subtalar_angle_l_u	mtp_angle_l_u	lumbar_extension_u	lumbar_bending_u	lumbar_rotation_u
      1.25399999999997250000	      2.03599212044691450000	      0.89837694733522000000	     -0.25873482823449234000	      1.09747388340088100000	     -0.81023745451484608000	      4.34883701462809570000	     -0.54163966642408301000	      3.39627013500965940000	      7.15421205074055330000	    -10.73699282749414300000	      9.82812390259817190000	     -0.00000000000007771474	      0.00000000000010474365	      8.29770555191283420000	     -7.12094275061976930000	     -5.08904088230396210000	    -40.16747260379138900000	     12.71047506765552300000	     -0.00000000000011455163	     -0.00000000000029818956	     -9.24758142618121330000	      2.44803288456204180000	      0.48421411945790455000	      0.42212280614410902000	     -0.00394394260102808990	     -0.04459313742496665700	      2.45875837259208920000	      4.51006349094887590000	      3.47716800661751390000	    -34.91430588251078100000	     -7.41285111055451560000	    -18.08117073425845300000	      5.06138366572687740000	     14.56803860618191700000	     -0.00000000000005040769	      0.00000000000021594452	     88.44785921601791800000	     15.47693706013623100000	      9.64375412247450290000	     33.29933977271672100000	     18.02156877817826700000	     -0.00000000000007190000	     -0.00000000000072897020	     -9.75734319834936240000	     -4.30316688188848670000	      2.28923115919197870000
      1.25449999999997240000	      2.03620312289586810000	      0.89837495524941025000	     -0.25875708161421435000	      1.09869519062860070000	     -0.80798545090754803000	      4.35055076342145330000	     -0.55907466348130652000	      3.39256942771381360000	      7.14517922753345050000	    -10.73448472350431600000	      9.83541265950766790000	     -0.00000000000007774299	      0.00000000000010485038	      8.34190630868687680000	     -7.11319291137837160000	     -5.08419191356363600000	    -40.15069832464468600000	     12.71935913353549100000	     -0.00000000000011458765	     -0.00000000000029855388	     -9.25245165667994130000	      2.44586434453702940000	      0.48538865760956756000	      0.42188738407676735000	     -0.00402438342271339840	     -0.04441952662928160700	      2.42640659827680730000	      4.49805860928662500000	      3.37762361904443200000	    -34.82568642188282800000	     -7.38999816064339580000	    -18.04988931579774900000	      4.97107913726627970000	     14.58715306338273800000	     -0.00000000000005964484	      0.00000000000019733054	     88.35500787438910200000	     15.52240084417699400000	      9.75197530863262680000	     33.79783330316031000000	     17.51479017507279300000	     -0.00000000000007193949	     -0.00000000000072817896	     -9.72346339086654150000	     -4.37137197336447430000	      2.40932977593215150000
      1.25499999999997240000	      2.03641400822429520000	      0.89837292296790972000	     -0.25877924690614484000	      1.09990022493439740000	     -0.80573928821614138000	      4.35221443442270230000	     -0.57646535444871250000	      3.38888011623747780000	      7.13616239294757900000	    -10.73202170313627200000	      9.84271116888207760000	     -0.00000000000007777597	      0.00000000000010494708	      8.38606040142028060000	     -7.10542036908588860000	     -5.07928905209876190000	    -40.13367471494223800000	     12.72798995309954500000	     -0.00000000000011462366	     -0.00000000000029891748	     -9.25730477299733500000	      2.44366113362365400000	      0.48662385779535672000	      0.42165432212599080000	     -0.00410472745491110000	     -0.04424078618492526000	      2.39366448245066320000	      4.48669987092348330000	      3.27685640723058520000	    -34.73707669125745000000	     -7.36726890122360350000	    -18.01721890259171100000	      4.88104603715879120000	     14.60694567974974800000	     -0.00000000000005396040	      0.00000000000018026680	     88.26120643780744500000	     15.56774870060422300000	      9.85932574081588520000	     34.29665949742525300000	     17.00858380960930200000	     -0.00000000000007214447	     -0.00000000000072726774	     -9.68888418329491860000	     -4.44185076140567770000	      2.53187961572186730000
      1.25549999999997230000	      2.03662477761112330000	      0.89837085053990762000	     -0.25880132156347091000	      1.10108879205276570000	     -0.80349864415722416000	      4.35382741757161540000	     -0.59381174496764877000	      3.38520213715326260000	      7.12716223937663430000	    -10.72960362892580100000	      9.85001971766835640000	     -0.00000000000007780078	      0.00000000000010502880	      8.43016735453258370000	     -7.09762518077187910000	     -5.07433273253428930000	    -40.11640161065298600000	     12.73636782571811600000	     -0.00000000000011465993	     -0.00000000000029928094	     -9.26214042639214700000	      2.44142212153602410000	      0.48792093760507244000	      0.42142361923106775000	     -0.00418496365908306920	     -0.04405702442246691600	      2.36054406439339500000	      4.47598241787996450000	      3.17487580857100180000	    -34.64849584964347400000	     -7.34466962026484630000	    -17.98316418972754600000	      4.79130429874117070000	     14.62741200908372400000	     -0.00000000000003214750	      0.00000000000013371630	     88.16644156778431800000	     15.61298793677640100000	      9.96580780243183820000	     34.79581203647110500000	     16.50302830256087500000	     -0.00000000000007342721	     -0.00000000000072696603	     -9.65361819764559570000	     -4.51456288975318550000	      2.65683155320329910000
